<?xml version="1.0" encoding="iso-8859-1"?>
<!-- Created with Liquid Technologies Online Tools 1.0 (https://www.liquid-technologies.com) -->
<!-- Uploaded to: SVG Repo, www.svgrepo.com, Generator: SVG Repo Mixer Tools -->
<svg height="24px" width="24px" version="1.1" id="Layer_1" xmlns="http://www.w3.org/2000/svg" xmlns:xlink="http://www.w3.org/1999/xlink" viewBox="0 0 507.733 507.733" xml:space="preserve">

  <g transform="translate(1 1)">
    <polygon style="fill:#AAB1BA;" points="360.813,226.413 319,244.333 307.053,232.387 271.213,196.547 259.267,184.6 277.187,142.787 277.187,142.787  " />
    <path style="fill:#ECF4F7;" d="M307.053,232.387L307.053,232.387L46.787,492.653c-10.24,10.24-26.453,10.24-35.84,0   c-10.24-10.24-10.24-26.453,0-35.84l260.267-260.267l0,0L307.053,232.387z" />
    <path style="fill:#C49AE9;" d="M429.08,40.387c5.973,5.12,11.947,10.24,17.92,16.213c19.627,19.627,32.427,40.96,39.253,59.733   c11.947,29.013,11.947,51.2,11.947,51.2l-137.387,58.88l-83.627-83.627h-0.853L335.213,5.4c0,0,26.453,0,59.733,15.36   C406.04,25.88,417.133,31.853,429.08,40.387" />
    <circle style="fill:#FFD0A1;" cx="284.867" cy="304.067" r="8.533" />

    <g>
      <circle style="fill:#7EE1E6;" cx="429.933" cy="261.4" r="8.533" />
      <circle style="fill:#7EE1E6;" cx="225.133" cy="31" r="8.533" />
    </g>
    <g>
      <circle style="fill:#C49AE9;" cx="498.2" cy="39.533" r="8.533" />
      <circle style="fill:#C49AE9;" cx="105.667" cy="116.333" r="8.533" />
    </g>

    <path style="fill:#51565F;" d="M29.867,505.6c-7.68,0-15.36-2.56-21.333-8.533C2.56,491.093,0,484.267,0,475.733  c0-8.533,3.413-15.36,8.533-21.333L243.2,219.733c1.707-1.707,4.267-1.707,5.973,0c1.707,1.707,1.707,4.267,0,5.973L14.507,460.373 c-4.267,4.267-5.973,9.387-5.973,15.36s2.56,11.093,5.973,15.36c8.533,8.533,22.187,8.533,29.867,0L279.04,256.427  c1.707-1.707,4.267-1.707,5.973,0c1.707,1.707,1.707,4.267,0,5.973L50.347,497.067C45.227,503.04,37.547,505.6,29.867,505.6z M448,352c-2.56,0-4.267-1.707-4.267-4.267v-12.8h-12.8c-2.56,0-4.267-1.707-4.267-4.267s1.707-4.267,4.267-4.267h12.8v-12.8 c0-2.56,1.707-4.267,4.267-4.267s4.267,1.707,4.267,4.267v12.8h12.8c2.56,0,4.267,1.707,4.267,4.267s-1.707,4.267-4.267,4.267h-12.8 v12.8C452.267,350.293,450.56,352,448,352z M320,249.6c-0.853,0-2.56-0.853-3.413-0.853l-59.733-59.733  c-0.853-0.853-1.707-3.413-0.853-5.12l76.8-179.2c0.853-1.707,2.56-2.56,4.267-2.56c2.56,0,62.293,0.853,114.347,52.053  s52.053,111.787,52.053,114.347c0,1.707-0.853,3.413-2.56,4.267L363.52,231.68l0,0l-41.813,17.92  C320.853,249.6,320.853,249.6,320,249.6z M265.387,184.747l55.467,55.467l33.28-14.507l-54.613-54.613  c-0.853-0.853-0.853-1.707-0.853-3.413s0-2.56,0.853-3.413c1.707-1.707,4.267-1.707,5.973,0l57.173,57.173l132.267-56.32  c0-5.973-2.56-22.187-9.387-41.813l-34.987,23.04c-1.707,0.853-4.267,0.853-5.973-0.853c-0.853-0.853-0.853-1.707-0.853-2.56  c0-1.707,0.853-2.56,1.707-3.413l36.693-23.893c-7.68-17.067-18.773-36.693-37.547-55.467c-5.12-5.12-10.24-9.387-14.507-13.653  l-56.32,56.32c-1.707,1.707-4.267,1.707-5.973,0c-0.853-0.853-0.853-1.707-0.853-3.413c0-1.707,0-2.56,0.853-3.413l55.467-55.467  c-8.533-5.973-17.067-11.093-24.747-15.36l-23.893,33.28c-1.707,1.707-4.267,2.56-5.973,0.853c-0.853-0.853-1.707-2.56-1.707-3.413  s0-1.707,0.853-2.56l22.187-31.573c-23.893-10.24-43.52-11.947-50.347-12.8L265.387,184.747z M140.8,241.067  c-2.56,0-4.267-1.707-4.267-4.267v-4.267h-4.267c-2.56,0-4.267-1.707-4.267-4.267s1.707-4.267,4.267-4.267h4.267v-4.267  c0-2.56,1.707-4.267,4.267-4.267c2.56,0,4.267,1.707,4.267,4.267V224h4.267c2.56,0,4.267,1.707,4.267,4.267  s-1.707,4.267-4.267,4.267h-4.267v4.267C145.067,239.36,143.36,241.067,140.8,241.067z M192,96c-2.56,0-4.267-1.707-4.267-4.267  v-12.8h-12.8c-2.56,0-4.267-1.707-4.267-4.267s1.707-4.267,4.267-4.267h12.8V57.6c0-2.56,1.707-4.267,4.267-4.267  s4.267,1.707,4.267,4.267v12.8h12.8c2.56,0,4.267,1.707,4.267,4.267s-1.707,4.267-4.267,4.267h-12.8v12.8  C196.267,94.293,194.56,96,192,96z" />
  </g>
</svg>
