<?xml version="1.0" encoding="UTF-8"?>
<!-- Uploaded to: SVG Repo, www.svgrepo.com, Generator: SVG Repo Mixer Tools -->
<svg
  xmlns="http://www.w3.org/2000/svg" xmlns:xlink="http://www.w3.org/1999/xlink"
  xml:space="preserve"
  version="1.1"
  id="Uploaded to svgrepo.com"
  width="24px" height="24px"
  viewBox="0 0 96 96"
>
  <g>
    <path
	  fill="#2ab2ea"
	  d="M 71.5,27.5 C 55.5,27.5 39.5,27.5 23.5,27.5C 23.3339,21.8236 23.5006,16.1569 24,10.5C 27.6667,9.16667 31.3333,9.16667 35,10.5C 35.3333,12.8333 35.6667,15.1667 36,17.5C 37.6667,20.1667 39.3333,20.1667 41,17.5C 41.2256,14.905 41.7256,12.405 42.5,10C 45.8333,9.33333 49.1667,9.33333 52.5,10C 55.1667,22.6667 57.8333,22.6667 60.5,10C 63.8333,9.33333 67.1667,9.33333 70.5,10C 71.4749,15.7412 71.8082,21.5746 71.5,27.5 Z"
	/>
  </g>
  <g>
    <path
	  fill="#31bbee"
	  d="M 23.5,27.5 C 39.5,27.5 55.5,27.5 71.5,27.5C 72.5862,27.62 73.2528,28.2867 73.5,29.5C 73.2528,30.7133 72.5862,31.38 71.5,31.5C 55.5,31.5 39.5,31.5 23.5,31.5C 22.4138,31.38 21.7472,30.7133 21.5,29.5C 21.7472,28.2867 22.4138,27.62 23.5,27.5 Z"
	/>
  </g>
  <g>
    <path
	  fill="#1ea2e4"
	  d="M 23.5,31.5 C 39.5,31.5 55.5,31.5 71.5,31.5C 69.8333,34.1667 68.1667,36.8333 66.5,39.5C 53.8333,39.5 41.1667,39.5 28.5,39.5C 26.8333,36.8333 25.1667,34.1667 23.5,31.5 Z"
	/>
  </g>
  <g>
    <path
	  fill="#2eb7ec"
	  d="M 28.5,39.5 C 41.1667,39.5 53.8333,39.5 66.5,39.5C 66.5,43.5 66.5,47.5 66.5,51.5C 53.515,52.9798 40.515,54.3132 27.5,55.5C 28.2745,50.2032 28.6079,44.8699 28.5,39.5 Z"
	/>
  </g>
  <g>
    <path
	  fill="#2ab2ea"
	  d="M 66.5,51.5 C 67.5979,57.9793 68.2646,64.6459 68.5,71.5C 64.1878,72.2476 59.8544,72.9143 55.5,73.5C 56.1321,67.4701 53.4654,64.1367 47.5,63.5C 40.8881,64.6962 38.2214,68.6962 39.5,75.5C 35.1756,75.9272 30.8422,76.2605 26.5,76.5C 26.7373,77.791 26.404,78.791 25.5,79.5C 26.3869,71.5239 27.0536,63.5239 27.5,55.5C 40.515,54.3132 53.515,52.9798 66.5,51.5 Z"
	/>
  </g>
  <g>
    <path
	  fill="#25ace8"
	  d="M 68.5,71.5 C 69.4216,76.4724 69.5883,81.4724 69,86.5C 64.5986,87.4667 60.0986,87.8 55.5,87.5C 55.5,82.8333 55.5,78.1667 55.5,73.5C 59.8544,72.9143 64.1878,72.2476 68.5,71.5 Z"
	/>
  </g>
  <g>
    <path
	  fill="#2c7ad4"
	  d="M 55.5,73.5 C 55.5,78.1667 55.5,82.8333 55.5,87.5C 50.1667,87.5 44.8333,87.5 39.5,87.5C 39.5,83.5 39.5,79.5 39.5,75.5C 38.2214,68.6962 40.8881,64.6962 47.5,63.5C 53.4654,64.1367 56.1321,67.4701 55.5,73.5 Z"
	/>
  </g>
  <g>
    <path
	  fill="#25ace8"
	  d="M 39.5,75.5 C 39.5,79.5 39.5,83.5 39.5,87.5C 35.1539,87.6657 30.8206,87.499 26.5,87C 25.565,84.6194 25.2317,82.1194 25.5,79.5C 26.404,78.791 26.7373,77.791 26.5,76.5C 30.8422,76.2605 35.1756,75.9272 39.5,75.5 Z"
    />
  </g>
</svg>
